<?xml version="1.0" standalone="no"?>
<!DOCTYPE svg PUBLIC "-//W3C//DTD SVG 20010904//EN"
 "http://www.w3.org/TR/2001/REC-SVG-20010904/DTD/svg10.dtd">
<svg version="1.0" xmlns="http://www.w3.org/2000/svg"
 width="512.000000pt" height="512.000000pt" viewBox="0 0 512.000000 512.000000"
 preserveAspectRatio="xMidYMid meet">

<g transform="translate(0.000000,512.000000) scale(0.100000,-0.100000)"
fill="#000000" stroke="none">
<path d="M505 4216 l-25 -25 0 -1551 0 -1551 25 -24 24 -25 540 0 c651 0 734
-8 1001 -91 99 -32 380 -163 380 -179 0 -15 -51 -49 -89 -61 -30 -9 -71 -3
-261 35 -499 100 -893 136 -1477 136 l-303 0 0 1455 0 1456 -25 24 c-15 16
-36 25 -55 25 -19 0 -40 -9 -55 -25 l-25 -24 0 -1511 0 -1511 25 -24 24 -25
359 0 c399 0 624 -10 907 -41 212 -23 542 -76 680 -110 173 -42 291 -25 373
53 l32 32 33 -32 c77 -74 176 -93 322 -62 561 119 976 160 1637 160 l359 0 24
25 25 24 0 1511 0 1511 -25 24 c-32 33 -78 33 -110 0 l-25 -24 0 -1456 0
-1455 -302 0 c-588 0 -999 -39 -1503 -141 -169 -35 -205 -39 -236 -30 -37 11
-89 46 -89 60 0 13 209 117 312 155 130 48 268 82 411 101 94 12 230 15 658
15 l540 0 24 25 25 24 0 311 0 311 -25 24 c-32 33 -78 33 -110 0 l-25 -24 0
-256 0 -255 -479 0 c-263 0 -525 -5 -582 -11 -224 -22 -457 -88 -658 -184 -62
-30 -115 -55 -117 -55 -2 0 -4 495 -4 1100 l0 1101 -25 24 c-32 33 -78 33
-110 0 l-25 -24 0 -1101 c0 -605 -2 -1100 -4 -1100 -2 0 -55 25 -117 55 -206
99 -430 162 -658 185 -57 5 -319 10 -582 10 l-479 0 0 1440 0 1441 678 -3
c669 -3 678 -4 735 -25 248 -94 404 -289 423 -527 7 -86 18 -111 55 -127 22
-9 36 -9 58 0 37 16 48 41 55 127 19 238 176 433 423 527 57 21 66 22 736 25
l677 3 0 -1056 0 -1056 25 -24 c32 -33 78 -33 110 0 l25 24 0 1111 0 1111 -25
25 -25 25 -737 -3 c-736 -4 -738 -4 -813 -26 -137 -42 -225 -96 -330 -202 -53
-52 -107 -116 -120 -142 -14 -27 -27 -48 -30 -48 -3 0 -16 21 -30 48 -13 26
-67 90 -120 142 -105 106 -193 160 -330 202 -75 22 -77 22 -813 26 l-737 3
-25 -25z"/>
<path d="M905 3656 c-30 -30 -33 -74 -6 -107 l19 -24 539 -5 c598 -6 564 -3
711 -79 79 -41 109 -44 142 -11 26 26 27 83 0 110 -29 29 -148 86 -232 112
-71 22 -88 22 -610 26 l-538 3 -25 -25z"/>
<path d="M3140 3673 c-114 -19 -285 -88 -330 -133 -27 -27 -26 -84 0 -110 31
-31 75 -30 129 5 20 12 70 35 111 51 l75 29 538 5 539 5 19 24 c26 32 24 77
-6 106 l-24 25 -513 -1 c-282 -1 -524 -4 -538 -6z"/>
<path d="M905 3256 c-30 -30 -33 -74 -6 -107 l19 -24 539 -5 c598 -6 564 -3
711 -79 79 -41 109 -44 142 -11 26 26 27 83 0 110 -29 29 -148 86 -232 112
-71 22 -88 22 -610 26 l-538 3 -25 -25z"/>
<path d="M3140 3273 c-114 -19 -285 -88 -330 -133 -27 -27 -26 -84 0 -110 31
-31 75 -30 129 5 20 12 70 35 111 51 l75 29 538 5 539 5 19 24 c26 32 24 77
-6 106 l-24 25 -513 -1 c-282 -1 -524 -4 -538 -6z"/>
<path d="M905 2856 c-30 -30 -33 -74 -6 -107 l19 -24 539 -5 c598 -6 564 -3
711 -79 79 -41 109 -44 142 -11 26 26 27 83 0 110 -29 29 -148 86 -232 112
-71 22 -88 22 -610 26 l-538 3 -25 -25z"/>
<path d="M3140 2873 c-114 -19 -285 -88 -330 -133 -27 -27 -26 -84 0 -110 31
-31 75 -30 129 5 20 12 70 35 111 51 l75 29 538 5 539 5 19 24 c26 32 24 77
-6 106 l-24 25 -513 -1 c-282 -1 -524 -4 -538 -6z"/>
<path d="M905 2456 c-30 -30 -33 -74 -6 -107 l19 -24 539 -5 c598 -6 564 -3
711 -79 79 -41 109 -44 142 -11 26 26 27 83 0 110 -29 29 -148 86 -232 112
-71 22 -88 22 -610 26 l-538 3 -25 -25z"/>
<path d="M3140 2473 c-114 -19 -285 -88 -330 -133 -27 -27 -26 -84 0 -110 31
-31 75 -30 129 5 20 12 70 35 111 51 l75 29 538 5 539 5 19 24 c26 32 24 77
-6 106 l-24 25 -513 -1 c-282 -1 -524 -4 -538 -6z"/>
<path d="M905 2056 c-30 -30 -33 -74 -6 -107 l19 -24 539 -5 c598 -6 564 -3
711 -79 79 -41 109 -44 142 -11 26 26 27 83 0 110 -29 29 -148 86 -232 112
-71 22 -88 22 -610 26 l-538 3 -25 -25z"/>
<path d="M3140 2073 c-114 -19 -285 -88 -330 -133 -27 -27 -26 -84 0 -110 31
-31 75 -30 129 5 20 12 70 35 111 51 l75 29 538 5 539 5 19 24 c26 32 24 77
-6 106 l-24 25 -513 -1 c-282 -1 -524 -4 -538 -6z"/>
<path d="M905 1656 c-30 -30 -33 -74 -6 -107 l19 -24 539 -5 c598 -6 564 -3
711 -79 79 -41 109 -44 142 -11 27 27 27 83 -1 111 -27 27 -167 94 -244 116
-53 15 -123 18 -597 21 l-538 3 -25 -25z"/>
<path d="M3140 1673 c-114 -19 -285 -88 -330 -133 -27 -27 -26 -84 0 -110 31
-31 75 -30 129 5 20 12 70 35 111 51 l75 29 538 5 539 5 19 24 c26 32 24 77
-6 106 l-24 25 -513 -1 c-282 -1 -524 -4 -538 -6z"/>
</g>
</svg>
